<svg xmlns="http://www.w3.org/2000/svg" width="512" height="512" viewBox="0 0 512 512" version="1.1"><path d="" stroke="none" fill="#080404" fill-rule="evenodd"/><path d="M 148 10.636 C 77.421 15.954, 21.365 73.535, 11.038 151.322 C 9.626 161.964, 9.626 349.036, 11.038 359.678 C 18.541 416.193, 51.193 464.102, 97.500 486.537 C 108.024 491.636, 118.938 495.412, 131.500 498.299 C 140.388 500.342, 142.727 500.372, 319.750 500.717 L 499 501.067 499 330.106 C 499 217.602, 498.645 156.470, 497.962 151.322 C 490.459 94.807, 457.807 46.898, 411.500 24.463 C 400.928 19.340, 389.988 15.563, 377.500 12.723 C 368.761 10.735, 365.366 10.670, 260.500 10.486 C 201.100 10.382, 150.475 10.449, 148 10.636 M 147.867 66.075 C 114.381 69.626, 85.433 91.326, 69.865 124.546 C 65.109 134.697, 61.430 148.438, 60.050 161.211 C 58.620 174.435, 58.634 336.799, 60.066 349.637 C 64.394 388.457, 85.722 420.533, 117.500 436.018 C 128.996 441.619, 135.953 443.591, 149.127 444.978 C 154.837 445.579, 215.462 445.972, 304.250 445.983 L 450 446 450 308.461 C 450 217.757, 449.637 167.667, 448.934 161.363 C 444.606 122.543, 423.278 90.467, 391.500 74.982 C 380.004 69.381, 373.047 67.409, 359.873 66.022 C 348.626 64.837, 159.094 64.885, 147.867 66.075 M 116.500 242.503 C 111.440 244.293, 105.486 250.586, 104.088 255.623 C 102.692 260.650, 102.709 271.412, 104.121 276.497 C 105.569 281.714, 112.286 288.431, 117.503 289.879 C 122.608 291.296, 155.259 291.333, 160.321 289.928 C 165.735 288.424, 171.530 282.829, 173.421 277.276 C 175.232 271.963, 175.483 261.278, 173.928 255.679 C 172.424 250.265, 166.829 244.470, 161.276 242.579 C 155.010 240.443, 122.478 240.388, 116.500 242.503 M 205.500 242.503 C 200.440 244.293, 194.486 250.586, 193.088 255.623 C 191.692 260.650, 191.709 271.412, 193.121 276.497 C 194.569 281.714, 201.286 288.431, 206.503 289.879 C 211.973 291.398, 390.862 291.444, 396.321 289.928 C 401.735 288.424, 407.530 282.829, 409.421 277.276 C 411.232 271.963, 411.483 261.278, 409.928 255.679 C 409.344 253.578, 407.301 250.126, 405.388 248.008 C 398.764 240.675, 403.548 240.995, 301.072 241.044 C 224.754 241.080, 208.834 241.323, 205.500 242.503 M 116.500 321.503 C 111.440 323.293, 105.486 329.586, 104.088 334.623 C 102.692 339.650, 102.709 350.412, 104.121 355.497 C 105.569 360.714, 112.286 367.431, 117.503 368.879 C 122.973 370.398, 301.862 370.444, 307.321 368.928 C 312.735 367.424, 318.530 361.829, 320.421 356.276 C 322.232 350.963, 322.483 340.278, 320.928 334.679 C 320.344 332.578, 318.301 329.126, 316.388 327.008 C 309.764 319.675, 314.548 319.995, 212.072 320.044 C 135.754 320.080, 119.834 320.323, 116.500 321.503 M 353.500 321.503 C 348.440 323.293, 342.486 329.586, 341.088 334.623 C 339.692 339.650, 339.709 350.412, 341.121 355.497 C 342.569 360.714, 349.286 367.431, 354.503 368.879 C 359.608 370.296, 392.259 370.333, 397.321 368.928 C 402.735 367.424, 408.530 361.829, 410.421 356.276 C 412.232 350.963, 412.483 340.278, 410.928 334.679 C 409.424 329.265, 403.829 323.470, 398.276 321.579 C 392.010 319.443, 359.478 319.388, 353.500 321.503" stroke="none" fill="#040404" fill-rule="evenodd"/></svg>